P3
4 4
255
255 0 0
0 255 0
0 0 255
255 255 0
255 0 255
0 255 255
100 100 100
140 140 140
180 180 180
20 180 20
30 65 180
49 247 38
99 110 20
110 170 230
230 40 100
160 30 30
